# xmcd
#
# Track frame offsets:
#	150
#	11621
#	22160
#	33371
#	45765
#	54981
#	65907
#	79523
#	88743
#	101076
#	112346
#	125824
#	136204
#	145940
#	158095
#	173045
#	183861
#	194863
#	205573
#	214924
#	226839
#	240669
#	251410
#	261550
#	275470
#
# Disc length: 3812 seconds
#
# Revision: 1634551653
# Processed by: cddbd v1.5.2PL0 Copyright (c) Steve Scherf et al.
# Submitted via: EZCDAudioConverter 2.1.5.1
#
DISCID=6b0ee219
DTITLE=The Stanley Brothers - The Early Years 1958-1961 [CD2]
DYEAR=2011
DGENRE=Country
TTITLE0=Choo Choo Coming
TTITLE1=Carolina Mountain Home
TTITLE2=Trust Each Other
TTITLE3=Beneath the Maple
TTITLE4=Highway of Regret
TTITLE5=A Little at a Time
TTITLE6=Another Night
TTITLE7=Ridin' That Midnite Train
TTITLE8=Mountain Dew
TTITLE9=Sunny Side of the Mountain
TTITLE10=Tragic Romance
TTITLE11=Shenandoah Waltz
TTITLE12=Next Sunday Darling Is My Birthday
TTITLE13=Sweet Thing
TTITLE14=Sweeter Than Flowers
TTITLE15=It's Raining Here This Morning
TTITLE16=Shackles and Chains
TTITLE17=Weepin' Willow
TTITLE18=Old Rattier
TTITLE19=I'm a Man of Constant Sorrow
TTITLE20=My Main Trial Is Yet to Come
TTITLE21=Mother Left Me Her Bible
TTITLE22=Jacob's Vision
TTITLE23=I'll Not Be a Stranger
TTITLE24=From the Manger to the Cross
EXTD=
EXTT0=
EXTT1=
EXTT2=
EXTT3=
EXTT4=
EXTT5=
EXTT6=
EXTT7=
EXTT8=
EXTT9=
EXTT10=
EXTT11=
EXTT12=
EXTT13=
EXTT14=
EXTT15=
EXTT16=
EXTT17=
EXTT18=
EXTT19=
EXTT20=
EXTT21=
EXTT22=
EXTT23=
EXTT24=
PLAYORDER=
